sfk_cyclingleg_x_-0.1_y_-0.04_states
version=1
nRows=12
nColumns=53
inDegrees=yes

# SIMM Motion File Header:
name sfk_cyclingleg_x_-0.1_y_-0.04_states
datacolumns 53
datarows 12
otherdata 1
range 0.39391864 0.39588176
endheader
time	/jointset/bb/crank_angle/value	/jointset/bb/crank_angle/speed	/jointset/spindle/pedal_angle_r/value	/jointset/spindle/pedal_angle_r/speed	/jointset/ground_pelvis/pelvis_tilt/value	/jointset/ground_pelvis/pelvis_tilt/speed	/jointset/ground_pelvis/pelvis_list/value	/jointset/ground_pelvis/pelvis_list/speed	/jointset/ground_pelvis/pelvis_rotation/value	/jointset/ground_pelvis/pelvis_rotation/speed	/jointset/ground_pelvis/pelvis_tx/value	/jointset/ground_pelvis/pelvis_tx/speed	/jointset/ground_pelvis/pelvis_ty/value	/jointset/ground_pelvis/pelvis_ty/speed	/jointset/ground_pelvis/pelvis_tz/value	/jointset/ground_pelvis/pelvis_tz/speed	/jointset/hip_r/hip_angle_r/value	/jointset/hip_r/hip_angle_r/speed	/jointset/hip_r/hip_adduction_r/value	/jointset/hip_r/hip_adduction_r/speed	/jointset/hip_r/hip_rotation_r/value	/jointset/hip_r/hip_rotation_r/speed	/jointset/knee_r/knee_angle_r/value	/jointset/knee_r/knee_angle_r/speed	/jointset/knee_r/tib_tx_r/value	/jointset/knee_r/tib_tx_r/speed	/jointset/knee_r/tib_ty_r/value	/jointset/knee_r/tib_ty_r/speed	/jointset/tib_pat_r/pat_angle_r/value	/jointset/tib_pat_r/pat_angle_r/speed	/jointset/tib_pat_r/pat_tx_r/value	/jointset/tib_pat_r/pat_tx_r/speed	/jointset/tib_pat_r/pat_ty_r/value	/jointset/tib_pat_r/pat_ty_r/speed	/jointset/ankle_r/ankle_angle_r/value	/jointset/ankle_r/ankle_angle_r/speed	/jointset/subtalar_r/subtalar_angle_r/value	/jointset/subtalar_r/subtalar_angle_r/speed	/jointset/mtp_r/mtp_angle_r/value	/jointset/mtp_r/mtp_angle_r/speed	/forceset/bifemlh_r/activation	/forceset/bifemlh_r/fiber_length	/forceset/bifemsh_r/activation	/forceset/bifemsh_r/fiber_length	/forceset/glut_max2_r/activation	/forceset/glut_max2_r/fiber_length	/forceset/vas_int_r/activation	/forceset/vas_int_r/fiber_length	/forceset/med_gas_r/activation	/forceset/med_gas_r/fiber_length	/forceset/tib_ant_r/activation	/forceset/tib_ant_r/fiber_length
      0.39391864	   -199.27043522	   -480.13863232	    202.01854756	    241.13815757	     -0.00000000	     -0.00000000	     -0.00000000	     -0.00000000	     -0.00000000	     -0.00000000	     -0.10000000	      0.00000000	     -0.04000000	     -0.00000000	      0.00000000	      0.00000000	     37.09635919	     82.59391968	      4.38261039	      0.29475513	      1.06001596	    -24.83491241	    -56.25230890	   -293.41929716	      0.00451632	      0.02649248	     -0.47483609	     -0.08667915	     17.30566290	      8.35845416	      0.04391063	     -0.08473844	     -0.02306241	      0.01091285	     22.31802097	    -27.76488578	      0.00000000	     -0.00000000	      0.00000000	     -0.00000000	     -0.02527491	      0.11608732	     -0.02527491	      0.16851026	     -0.02527491	      0.12797836	     -0.02527491	      0.12637803	     -0.02527491	      0.14726161	     -0.02527491	      0.11625447
      0.39420848	   -199.40959720	   -480.13863232	    202.08846540	    241.32504929	     -0.00000000	     -0.00000000	     -0.00000000	     -0.00000000	     -0.00000000	     -0.00000000	     -0.10000000	      0.00000000	     -0.04000000	     -0.00000000	      0.00000000	      0.00000000	     37.12031888	     82.73814582	      4.38269507	      0.28953252	      1.05281973	    -24.82214136	    -56.33737194	   -293.55193168	      0.00452398	      0.02636234	     -0.47486123	     -0.08679112	     17.30807764	      8.30427628	      0.04388606	     -0.08482802	     -0.02305925	      0.01091315	     22.30999953	    -27.58656873	      0.00000000	     -0.00000000	      0.00000000	     -0.00000000	     -0.02531222	      0.11606274	     -0.02531222	      0.16846163	     -0.02531222	      0.12799647	     -0.02531222	      0.12644169	     -0.02531222	      0.14728904	     -0.02531222	      0.11626166
      0.39423746	   -199.42351340	   -480.13863232	    202.09546017	    241.34377963	     -0.00000000	     -0.00000000	     -0.00000000	     -0.00000000	     -0.00000000	     -0.00000000	     -0.10000000	      0.00000000	     -0.04000000	     -0.00000000	      0.00000000	      0.00000000	     37.12271715	     82.75255037	      4.38270345	      0.28900979	      1.05210031	    -24.82086502	    -56.34588036	   -293.56512599	      0.00452475	      0.02634928	     -0.47486375	     -0.08680229	     17.30831825	      8.29886370	      0.04388360	     -0.08483696	     -0.02305893	      0.01091318	     22.30920022	    -27.56874711	      0.00000000	     -0.00000000	      0.00000000	     -0.00000000	     -0.02531595	      0.11606029	     -0.02531595	      0.16845676	     -0.02531595	      0.12799829	     -0.02531595	      0.12644805	     -0.02531595	      0.14724354	     -0.02531595	      0.11626238
      0.39430484	   -199.45586365	   -480.13863232	    202.11172263	    241.38734989	     -0.00000000	     -0.00000000	     -0.00000000	     -0.00000000	     -0.00000000	     -0.00000000	     -0.10000000	      0.00000000	     -0.04000000	     -0.00000000	      0.00000000	      0.00000000	     37.12829388	     82.78602323	      4.38272288	      0.28779430	      1.05042806	    -24.81789853	    -56.36566089	   -293.59574968	      0.00452652	      0.02631888	     -0.47486960	     -0.08682824	     17.30887698	      8.28628505	      0.04387788	     -0.08485773	     -0.02305820	      0.01091325	     22.30734412	    -27.52732524	      0.00000000	     -0.00000000	      0.00000000	     -0.00000000	     -0.02532463	      0.11605458	     -0.02532463	      0.16844546	     -0.02532463	      0.12800250	     -0.02532463	      0.12646285	     -0.02532463	      0.14722264	     -0.02532463	      0.11626405
      0.39442085	   -199.51156635	   -480.13863232	    202.13973125	    241.46246633	     -0.00000000	     -0.00000000	     -0.00000000	     -0.00000000	     -0.00000000	     -0.00000000	     -0.10000000	      0.00000000	     -0.04000000	     -0.00000000	      0.00000000	      0.00000000	     37.13790154	     82.84361773	      4.38275615	      0.28570031	      1.04754914	    -24.81279248	    -56.39972510	   -293.64832101	      0.00452957	      0.02626642	     -0.47487967	     -0.08687288	     17.30983704	      8.26463849	      0.04386804	     -0.08489345	     -0.02305693	      0.01091338	     22.30415471	    -27.45602576	      0.00000000	     -0.00000000	      0.00000000	     -0.00000000	     -0.02533957	      0.11604477	     -0.02533957	      0.16842599	     -0.02533957	      0.12800977	     -0.02533957	      0.12648834	     -0.02533957	      0.14721205	     -0.02533957	      0.11626691
      0.39480878	   -199.69782666	   -480.13863232	    202.23345069	    241.71450682	     -0.00000000	     -0.00000000	     -0.00000000	     -0.00000000	     -0.00000000	     -0.00000000	     -0.10000000	      0.00000000	     -0.04000000	     -0.00000000	      0.00000000	      0.00000000	     37.17007639	     83.03582908	      4.38286562	      0.27868856	      1.03792682	    -24.79573598	    -56.51367406	   -293.82266066	      0.00453973	      0.02609002	     -0.47491340	     -0.08702160	     17.31302912	      8.19236901	      0.04383508	     -0.08501250	     -0.02305270	      0.01091379	     22.29354990	    -27.21782747	      0.00000000	     -0.00000000	      0.00000000	     -0.00000000	     -0.02538951	      0.11601202	     -0.02538951	      0.16836089	     -0.02538951	      0.12803410	     -0.02538951	      0.12657357	     -0.02538951	      0.14717448	     -0.02538951	      0.11627643
      0.39496538	   -199.77301636	   -480.13863232	    202.27131117	    241.81662591	     -0.00000000	     -0.00000000	     -0.00000000	     -0.00000000	     -0.00000000	     -0.00000000	     -0.10000000	      0.00000000	     -0.04000000	     -0.00000000	      0.00000000	      0.00000000	     37.18308587	     83.11325945	      4.38290904	      0.27585382	      1.03404434	    -24.78885839	    -56.55969215	   -293.89240894	      0.00454381	      0.02601837	     -0.47492703	     -0.08708141	     17.31430977	      8.16324513	      0.04382176	     -0.08506040	     -0.02305099	      0.01091396	     22.28929511	    -27.12176556	      0.00000000	     -0.00000000	      0.00000000	     -0.00000000	     -0.02540967	      0.11599884	     -0.02540967	      0.16833461	     -0.02540967	      0.12804394	     -0.02540967	      0.12660793	     -0.02540967	      0.14715111	     -0.02540967	      0.11628025
      0.39525502	   -199.91208254	   -480.13863232	    202.34137777	    242.00606454	     -0.00000000	     -0.00000000	     -0.00000000	     -0.00000000	     -0.00000000	     -0.00000000	     -0.10000000	      0.00000000	     -0.04000000	     -0.00000000	      0.00000000	      0.00000000	     37.20717930	     83.25622827	      4.38298818	      0.27060453	      1.02686640	    -24.77615031	    -56.64483301	   -294.02046309	      0.00455132	      0.02588519	     -0.47495227	     -0.08719169	     17.31666636	      8.10945636	      0.04379711	     -0.08514873	     -0.02304783	      0.01091428	     22.28146534	    -26.94423884	      0.00000000	     -0.00000000	      0.00000000	     -0.00000000	     -0.02544696	      0.11597449	     -0.02544696	      0.16828599	     -0.02544696	      0.12806216	     -0.02544696	      0.12667151	     -0.02544696	      0.14717820	     -0.02544696	      0.11628728
      0.39528398	   -199.92598916	   -480.13863232	    202.34838744	    242.02504865	     -0.00000000	     -0.00000000	     -0.00000000	     -0.00000000	     -0.00000000	     -0.00000000	     -0.10000000	      0.00000000	     -0.04000000	     -0.00000000	      0.00000000	      0.00000000	     37.20959092	     83.27050805	      4.38299601	      0.27007915	      1.02614881	    -24.77488039	    -56.65334913	   -294.03320106	      0.00455207	      0.02587183	     -0.47495480	     -0.08720269	     17.31690116	      8.10408302	      0.04379465	     -0.08515754	     -0.02304751	      0.01091431	     22.28068519	    -26.92649643	      0.00000000	     -0.00000000	      0.00000000	     -0.00000000	     -0.02545069	      0.11597206	     -0.02545069	      0.16828113	     -0.02545069	      0.12806399	     -0.02545069	      0.12667787	     -0.02545069	      0.14713382	     -0.02545069	      0.11628798
      0.39535230	   -199.95879332	   -480.13863232	    202.36492468	    242.06985898	     -0.00000000	     -0.00000000	     -0.00000000	     -0.00000000	     -0.00000000	     -0.00000000	     -0.10000000	      0.00000000	     -0.04000000	     -0.00000000	      0.00000000	      0.00000000	     37.21528130	     83.30418022	      4.38301442	      0.26883952	      1.02445623	    -24.77188547	    -56.67343917	   -294.06320010	      0.00455384	      0.02584026	     -0.47496076	     -0.08722863	     17.31745442	      8.09141195	      0.04378883	     -0.08517832	     -0.02304677	      0.01091438	     22.27884694	    -26.88465148	      0.00000000	     -0.00000000	      0.00000000	     -0.00000000	     -0.02545949	      0.11596632	     -0.02545949	      0.16826966	     -0.02545949	      0.12806829	     -0.02545949	      0.12669287	     -0.02545949	      0.14711296	     -0.02545949	      0.11628963
      0.39547063	   -200.01560688	   -480.13863232	    202.39357277	    242.14756199	     -0.00000000	     -0.00000000	     -0.00000000	     -0.00000000	     -0.00000000	     -0.00000000	     -0.10000000	      0.00000000	     -0.04000000	     -0.00000000	      0.00000000	      0.00000000	     37.22514192	     83.36245655	      4.38304610	      0.26669154	      1.02152535	    -24.76670076	    -56.70823797	   -294.11499475	      0.00455689	      0.02578549	     -0.47497108	     -0.08727349	     17.31841055	      8.06948032	      0.04377875	     -0.08521427	     -0.02304548	      0.01091452	     22.27567004	    -26.81220483	      0.00000000	     -0.00000000	      0.00000000	     -0.00000000	     -0.02547473	      0.11595640	     -0.02547473	      0.16824980	     -0.02547473	      0.12807575	     -0.02547473	      0.12671884	     -0.02547473	      0.14710207	     -0.02547473	      0.11629248
      0.39588176	   -200.21300730	   -480.13863232	    202.49318306	    242.41848554	     -0.00000000	     -0.00000000	     -0.00000000	     -0.00000000	     -0.00000000	     -0.00000000	     -0.10000000	      0.00000000	     -0.04000000	     -0.00000000	      0.00000000	      0.00000000	     37.25945646	     83.56454411	      4.38315421	      0.25921788	      1.01134666	    -24.74870856	    -56.82919485	   -294.29338001	      0.00456746	      0.02559405	     -0.47500699	     -0.08742878	     17.32171253	      7.99341201	      0.04374369	     -0.08533875	     -0.02304099	      0.01091498	     22.26469839	    -26.56073055	      0.00000000	     -0.00000000	      0.00000000	     -0.00000000	     -0.02552766	      0.11592200	     -0.02552766	      0.16818079	     -0.02552766	      0.12810170	     -0.02552766	      0.12680910	     -0.02552766	      0.14706197	     -0.02552766	      0.11630234
